<?xml version="1.0" encoding="UTF-8" standalone="no"?>
<svg
   xmlns:dc="http://purl.org/dc/elements/1.1/"
   xmlns:cc="http://creativecommons.org/ns#"
   xmlns:rdf="http://www.w3.org/1999/02/22-rdf-syntax-ns#"
   xmlns:svg="http://www.w3.org/2000/svg"
   xmlns="http://www.w3.org/2000/svg"
   xmlns:sodipodi="http://sodipodi.sourceforge.net/DTD/sodipodi-0.dtd"
   xmlns:inkscape="http://www.inkscape.org/namespaces/inkscape"
   viewBox="0 0 1203.83 306.71"
   version="1.1"
   id="svg16"
   sodipodi:docname="logo_tim_vert.svg"
   inkscape:version="0.92.4 (5da689c313, 2019-01-14)">
  <metadata
     id="metadata20">
    <rdf:RDF>
      <cc:Work
         rdf:about="">
        <dc:format>image/svg+xml</dc:format>
        <dc:type
           rdf:resource="http://purl.org/dc/dcmitype/StillImage" />
        <dc:title />
      </cc:Work>
    </rdf:RDF>
  </metadata>
  <sodipodi:namedview
     pagecolor="#ffffff"
     bordercolor="#666666"
     borderopacity="1"
     objecttolerance="10"
     gridtolerance="10"
     guidetolerance="10"
     inkscape:pageopacity="0"
     inkscape:pageshadow="2"
     inkscape:window-width="1600"
     inkscape:window-height="847"
     id="namedview18"
     showgrid="false"
     inkscape:zoom="0.23591372"
     inkscape:cx="-103.85152"
     inkscape:cy="-16.198519"
     inkscape:window-x="-8"
     inkscape:window-y="-8"
     inkscape:window-maximized="1"
     inkscape:current-layer="svg16" />
  <defs
     id="defs4">
    <style
       id="style2">.cls-1,.cls-2{fill:#ff003a;}.cls-2{stroke:#ff003a;stroke-miterlimit:10;stroke-width:3px;}</style>
  </defs>
  <g
     id="Calque_2"
     data-name="Calque 2"
     style="fill:#669d73;fill-opacity:1;stroke:#649e75;stroke-opacity:1">
    <g
       id="logo_7"
       style="fill:#669d73;fill-opacity:1;stroke:#649e75;stroke-opacity:1">
      <g
         id="O"
         style="fill:#669d73;fill-opacity:1;stroke:#649e75;stroke-opacity:1">
        <circle
           class="cls-1"
           cx="1114.83"
           cy="162.78"
           r="87.5"
           id="circle6"
           style="fill:#669d73;fill-opacity:1;stroke:#649e75;stroke-opacity:1" />
        <path
           class="cls-1"
           d="M1114.83,76.78a86,86,0,1,1-86,86,86.1,86.1,0,0,1,86-86m0-3a89,89,0,1,0,89,89,89,89,0,0,0-89-89Z"
           id="path8"
           style="fill:#669d73;fill-opacity:1;stroke:#649e75;stroke-opacity:1" />
      </g>
      <path
         id="M"
         class="cls-2"
         d="M787.19,168.31l16.26,16.26,16.27-16.26L932.06,56V282.21h-257v-226ZM652.06,2.21v303h303V2.21h-1.77L803.45,152,653.62,2.21Z"
         style="fill:#669d73;fill-opacity:1;stroke:#649e75;stroke-opacity:1" />
      <path
         id="I"
         class="cls-2"
         d="M326,2V305H629V2ZM455.91,131.89a33.5,33.5,0,0,0,34.8,55.3L585.47,282H349V25H606V261.45l-94.77-94.77a33.5,33.5,0,0,0-55.3-34.79Z"
         style="fill:#669d73;fill-opacity:1;stroke:#649e75;stroke-opacity:1" />
      <path
         id="T"
         class="cls-2"
         d="M208,1.5,1.5,208V304.5h303V1.5ZM24.5,281.5v-64l85.62-85.62L230,251.74l20.51-20.5L130.63,111.37,217.5,24.5h64v257Z"
         style="fill:#669d73;fill-opacity:1;stroke:#649e75;stroke-opacity:1" />
    </g>
  </g>
</svg>
